<svg width="100" height="84" viewBox="0 0 100 84" fill="none" xmlns="http://www.w3.org/2000/svg">
<path d="M52.2196 42.748H49.5437H10.375L18.136 77.0001H49.5389H52.2148H83.6176L91.3786 42.748H52.2196ZM13.8071 45.4665H29.2468L31.37 60.2145H17.152L13.8071 45.4665ZM20.3369 74.2816L17.7628 62.933H31.753L33.3866 74.2816H20.3369ZM49.471 74.2816H36.1643L34.5307 62.933H49.471V74.2816ZM49.471 60.2145H34.1429L32.0196 45.4665H49.471V60.2145ZM65.599 74.2816H52.2923V62.933H67.2327L65.599 74.2816ZM52.2923 60.2145V45.4665H69.7437L67.6205 60.2145H52.2923ZM81.4265 74.2816H68.3767L70.0104 62.933H84.0006L81.4265 74.2816ZM70.3982 60.2145L72.5214 45.4665H87.9611L84.6211 60.2145H70.3982Z" fill="white"/>
<path d="M64.1109 17.5288C63.0395 14.2733 59.5057 12.4897 56.2093 13.5493C56.0978 13.5829 55.9863 13.626 55.8796 13.6644C55.8893 13.511 55.899 13.3575 55.899 13.1993C55.899 9.77602 53.0922 7 49.631 7C46.1698 7 43.3631 9.77602 43.3631 13.1993C43.3631 13.3144 43.368 13.4294 43.3728 13.5445C43.2274 13.487 43.0819 13.4294 42.9317 13.3815C39.6401 12.3219 36.1014 14.1055 35.03 17.3609C33.9587 20.6164 35.762 24.1164 39.0536 25.176C39.1651 25.2096 39.2765 25.2431 39.388 25.2719C39.2862 25.387 39.1893 25.5068 39.0972 25.6363C37.0612 28.4075 37.6817 32.2863 40.4836 34.3C43.2855 36.3137 47.2073 35.7 49.2433 32.9287C49.3111 32.8329 49.379 32.7418 49.442 32.6411C49.5244 32.7705 49.6068 32.9 49.7038 33.0246C51.7398 35.7959 55.6615 36.4096 58.4634 34.3959C61.2654 32.3822 61.8858 28.5034 59.8499 25.7322C59.782 25.6363 59.7092 25.5452 59.6365 25.4589C59.7868 25.4205 59.9371 25.3822 60.0874 25.3342C63.3789 24.2842 65.1822 20.789 64.1109 17.5288ZM49.5729 26.5377C47.1054 26.5377 45.1082 24.5575 45.1082 22.1219C45.1082 19.6815 47.1054 17.7062 49.5729 17.7062C52.0403 17.7062 54.0376 19.6863 54.0376 22.1219C54.0376 24.5623 52.0403 26.5377 49.5729 26.5377Z" fill="white"/>
<path d="M33.0862 29.5631C34.0897 26.8062 32.6451 23.7665 29.8577 22.7692C29.7656 22.7357 29.6686 22.7069 29.5717 22.6781C29.6589 22.5822 29.7462 22.4816 29.8286 22.3761C31.6465 20.0603 31.2248 16.7281 28.8834 14.9302C26.542 13.1322 23.1729 13.5494 21.355 15.8651C21.292 15.9418 21.2338 16.0233 21.1805 16.1048C21.1126 15.9898 21.0447 15.8795 20.9672 15.7692C19.3044 13.3432 15.9644 12.7103 13.5115 14.3596C11.0586 16.0042 10.4188 19.3076 12.0864 21.7336C12.1445 21.8151 12.2027 21.8966 12.2609 21.9733C12.13 22.0021 11.9991 22.0309 11.873 22.0692C9.02749 22.8843 7.38904 25.8281 8.21313 28.6425C9.03723 31.4569 12.0136 33.0774 14.8592 32.2624C14.9561 32.2336 15.0482 32.2048 15.1452 32.1713C15.1306 32.3007 15.121 32.435 15.1161 32.5644C15.0192 35.4939 17.346 37.9439 20.3079 38.0398C23.2698 38.1357 25.7469 35.8343 25.8439 32.9048C25.8487 32.8042 25.8487 32.7083 25.8439 32.6076C25.9651 32.6603 26.0863 32.7131 26.2172 32.7562C29.0046 33.7487 32.0779 32.3199 33.0862 29.5631ZM18.4755 28.1007C16.8079 26.8206 16.5074 24.4425 17.8017 22.798C19.096 21.1487 21.5004 20.8514 23.1632 22.1316C24.8307 23.4117 25.1313 25.7898 23.837 27.4343C22.5427 29.0836 20.1431 29.3809 18.4755 28.1007Z" fill="white"/>
<path d="M92.9542 26.7437C93.3469 23.704 91.1703 20.928 88.0969 20.5396C87.9951 20.5252 87.8885 20.5156 87.7867 20.5108C87.8546 20.391 87.9224 20.2711 87.9805 20.1417C89.3039 17.3704 88.1018 14.0622 85.2999 12.7581C82.4979 11.454 79.1531 12.6383 77.8345 15.4095C77.7909 15.5054 77.7473 15.5965 77.7085 15.6924C77.6164 15.5917 77.5194 15.491 77.4176 15.3951C75.1635 13.2951 71.6102 13.4006 69.4869 15.6348C67.3637 17.8643 67.4703 21.3787 69.7293 23.4787C69.8069 23.5506 69.8844 23.6177 69.962 23.6848C69.836 23.7424 69.7099 23.7999 69.5887 23.867C66.8741 25.3389 65.8755 28.7143 67.3685 31.3992C68.8568 34.0841 72.2695 35.067 74.9841 33.5951C75.0762 33.5471 75.1683 33.4944 75.2556 33.4369C75.2701 33.5711 75.2895 33.7102 75.3186 33.8492C75.8954 36.8602 78.8331 38.8355 81.8726 38.2649C84.9169 37.6944 86.9141 34.7889 86.3373 31.7828C86.3179 31.6821 86.2936 31.5814 86.2694 31.4807C86.4051 31.5095 86.5408 31.5335 86.6814 31.5478C89.7548 31.9314 92.5615 29.7834 92.9542 26.7437ZM77.7133 28.5417C75.7161 27.6115 74.8629 25.2574 75.8033 23.2821C76.7438 21.3067 79.124 20.4629 81.1212 21.393C83.1184 22.3232 83.9716 24.6773 83.0311 26.6526C82.0907 28.628 79.7105 29.4718 77.7133 28.5417Z" fill="white"/>
</svg>
