<svg width="100" height="84" viewBox="0 0 100 84" fill="none" xmlns="http://www.w3.org/2000/svg">
<path d="M52.0964 72.2612C52.3847 70.3938 53.8426 69.2547 52.2596 67.9021C51.1988 66.9985 50.2251 65.9853 49.1752 64.9831C49.73 64.4574 50.1381 64.0467 50.5624 63.6579C54.6151 59.9394 54.5552 60.0051 58.6242 63.6962C59.9298 64.8791 59.5599 65.4486 58.4773 66.3084C56.742 67.683 55.0775 69.1288 57.1555 71.856C59.0649 68.2416 61.0776 64.7641 62.7476 61.1278C63.7812 58.8825 64.8257 58.2308 67.1431 59.4465C69.6128 60.7444 72.2783 61.6699 74.8785 62.705C75.9447 63.1321 76.6682 63.7181 76.8967 64.9339C77.4624 67.9459 78.0989 70.9415 78.7517 73.9316C78.9475 74.8297 78.8116 75.3499 78.0065 75.9852C64.4666 86.6368 44.9321 86.6805 31.142 76.0618C30.3913 75.4814 30.0976 75.0049 30.3315 74.0137C31.0496 70.9524 31.6588 67.8583 32.2463 64.7696C32.4367 63.7564 32.9481 63.2033 33.8783 62.8309C37.0117 61.5878 40.1559 60.3556 43.2294 58.9701C44.5677 58.3622 45.1061 58.8113 45.6882 59.9613C47.6846 63.9153 49.7736 67.8309 52.0964 72.2612Z" fill="white"/>
<path d="M25.2598 55.651C19.7225 55.8074 14.5428 53.8605 9.88859 50.3659C9.56892 50.1286 8.99462 49.8589 9.00004 49.6109C9.0488 47.0815 9.77482 44.6601 10.3058 42.2063C10.5767 40.9659 11.7416 41.0576 12.5218 40.5668C16.6992 37.9189 20.2372 37.9405 23.5856 42.2279C25.5795 44.7842 26.0292 44.4875 28.424 42.1686C28.8358 41.7695 29.2422 41.3704 29.6486 40.9659C32.7477 37.8919 32.7315 37.9351 36.8113 39.5314C38.1333 40.0491 38.9677 40.5237 38.7835 42.2441C38.5451 44.4983 39.4824 46.5423 40.7719 48.4028C41.7959 49.8751 41.5684 50.8405 39.8617 51.8543C35.4459 54.4753 30.7484 55.802 25.2598 55.651Z" fill="white"/>
<path d="M39.7862 39.0634C36.9076 37.6104 33.6883 37.0592 31.1334 35.172C30.2703 34.5373 30.1284 35.1608 29.7423 35.4503C27.0851 37.4823 24.4961 37.7106 21.9127 35.3C21.6061 35.0105 21.3335 34.3536 20.4932 35.0718C17.8644 37.3209 14.3272 37.7273 11.1647 39.4698C11.1023 38.8129 10.9546 38.4566 11.0625 38.2061C13.1973 33.1789 13.1633 27.6674 14.7701 22.5233C15.4514 20.341 16.4507 18.2978 17.5862 16.3159C18.2676 15.1301 19.159 14.089 20.2832 13.2985C23.6217 10.9436 31.5933 12.4022 33.8417 15.7815C36.3285 19.5171 37.5776 23.7147 38.2135 28.0683C38.5939 30.657 38.8722 33.2402 40.0361 35.6396C40.5414 36.6807 40.496 37.7273 39.7862 39.0634ZM18.4777 26.5094C18.5288 29.499 21.8048 34.4093 24.4393 35.5728C25.2399 35.9291 26.0517 36.1184 26.9261 35.8623C30.1454 34.9215 34.1199 28.1128 33.2682 24.9562C33.0695 24.2269 32.8821 23.6479 31.8431 23.492C28.2547 22.9464 24.9503 21.5045 21.0043 23.2248C18.9148 24.1322 18.5515 24.9395 18.4777 26.5094Z" fill="white"/>
<path d="M77.3491 36.4337C75.7698 36.2442 74.1795 36.1122 72.6114 35.8596C70.148 35.4635 67.9293 34.7114 66.9228 31.9329C66.5836 31.0029 65.8106 30.2107 65.1211 29.4644C62.6521 26.7777 63.3917 24.4757 66.5947 22.6271C70.1591 20.5662 72.8171 20.7499 75.1915 24.3149C76.5483 26.3472 77.9218 26.2381 79.64 24.3608C83.1878 20.4801 83.2823 20.5719 88.3925 22.7821C90.172 23.5514 92.5908 29.0797 91.8513 30.8651C91.6789 31.2784 91.1451 31.554 90.7503 31.8468C86.4963 35.0329 82.6651 36.3016 77.3491 36.4337Z" fill="white"/>
<path d="M66.6869 42.4863C64.4091 48.1823 62.6488 54.4897 56.7492 58.0594C54.9995 59.117 53.2233 58.77 51.511 57.6958C49.5267 56.4508 47.9851 54.7211 46.8435 52.727C45.3393 50.0993 43.915 47.367 42.8748 44.519C40.9225 39.1756 45.2379 30.9457 50.7962 28.9846C56.6958 26.9023 63.0489 29.9982 65.0973 36.0687C65.7534 38.0078 66.1001 40.068 66.6869 42.4863ZM54.3755 57.1504C55.9224 57.0898 57.0372 56.1589 58.1361 55.1508C61.4433 52.11 62.7448 47.8022 64.7345 43.9351C65.1079 43.2025 64.9639 42.1393 64.9106 41.2359C64.8679 40.5197 64.1744 40.0791 63.7317 40.6134C61.6353 43.1364 61.454 40.393 61.0966 39.4676C60.3925 37.6607 59.651 37.2476 57.9601 38.2997C56.1251 39.44 54.3221 40.4041 51.9537 38.9222C49.1799 37.187 49.0359 37.4239 47.4143 40.4426C46.9395 41.324 46.6622 42.4753 45.51 40.9274C44.7578 39.9193 44.0697 40.3655 43.9524 41.5113C43.8777 42.244 43.8296 43.1033 44.1284 43.7258C46.0754 47.8077 47.5583 52.1871 50.9829 55.3436C51.9591 56.2415 52.9939 57.0072 54.3755 57.1504Z" fill="white"/>
<path d="M89.964 21.9691C87.1447 21.0422 84.3311 20.59 82.0467 18.9931C81.1608 18.3733 81.0383 19.088 80.7095 19.3449C78.765 20.858 76.854 20.8692 74.9597 19.3114C74.3412 18.8033 74.0292 18.7251 73.1656 19.1885C70.8868 20.4225 68.4074 21.2712 66.0339 22.2651C65.8556 22.0361 65.6495 21.8742 65.6774 21.8016C67.282 17.4185 67.4714 12.7116 68.7807 8.27266C70.2628 3.23629 73.7339 0.120668 77.6062 0.00341345C81.5174 -0.113841 84.944 2.7952 86.7157 7.88741C88.2925 12.4268 87.9136 17.4129 89.964 21.9691ZM83.9244 11.5893C84.2531 10.4502 83.2 9.98682 82.303 9.60713C80.2917 8.76402 78.1689 8.18892 76.2077 7.25646C74.6922 6.53618 73.5055 5.90523 72.9149 8.17216C72.7979 8.61326 72.5583 9.01528 71.8396 8.89803C70.4077 8.6691 70.1291 8.87569 70.5748 10.065C71.7783 13.2923 73.1266 16.4861 75.9068 18.753C76.7147 19.4119 77.6006 19.7636 78.7093 19.3672C81.0327 18.5185 83.9801 14.3308 83.9244 11.5893Z" fill="white"/>
</svg>
