<svg width="31" height="31" viewBox="0 0 31 31" fill="none" xmlns="http://www.w3.org/2000/svg">
<path d="M26.6289 21.0789V25.5627C26.629 25.8837 26.5074 26.1929 26.2885 26.4277C26.0697 26.6626 25.7699 26.8057 25.4496 26.8282C24.8955 26.8662 24.4428 26.8865 24.0928 26.8865C12.8871 26.8865 3.80414 17.8035 3.80414 6.59785C3.80414 6.24787 3.82316 5.79518 3.86247 5.24105C3.88494 4.92079 4.02805 4.62099 4.26292 4.40212C4.49779 4.18325 4.80693 4.06162 5.12797 4.06177H9.61177C9.76905 4.06161 9.92078 4.11992 10.0375 4.22537C10.1542 4.33082 10.2275 4.47589 10.2433 4.63239C10.2724 4.92404 10.299 5.15609 10.3244 5.33234C10.5764 7.09102 11.0928 8.80149 11.8562 10.4058C11.9767 10.6594 11.898 10.9624 11.6698 11.1248L8.93337 13.0801C10.6065 16.9786 13.7133 20.0854 17.6118 21.7585L19.5646 19.0272C19.6444 18.9156 19.7609 18.8356 19.8937 18.801C20.0265 18.7665 20.1671 18.7797 20.2912 18.8383C21.8953 19.6002 23.6053 20.1153 25.3634 20.3662C25.5396 20.3916 25.7717 20.4195 26.0608 20.4474C26.2171 20.4634 26.3618 20.5369 26.467 20.6536C26.5722 20.7702 26.6303 20.9218 26.6301 21.0789H26.6289Z" fill="#344135"/>
</svg>
