<svg width="100" height="84" viewBox="0 0 100 84" fill="none" xmlns="http://www.w3.org/2000/svg">
<circle cx="50" cy="42" r="40" stroke="white" stroke-width="4"/>
<path fill-rule="evenodd" clip-rule="evenodd" d="M48.8777 10.5454C49.2849 9.58075 49.7635 8.68367 50.2661 7.87602C50.1774 7.87534 50.0887 7.875 49.9999 7.875C41.9248 7.875 34.5047 10.6798 28.6609 15.3683C29.3504 15.3549 30.0674 15.5042 30.7493 15.8772C31.5558 16.3184 32.1418 16.9781 32.5633 17.6807C33.0362 18.4688 33.4292 19.0699 33.7727 19.5196C33.9606 19.7657 34.1109 19.9359 34.225 20.0514C36.3115 18.7362 38.6648 19.222 40.2598 20.527C41.8468 21.8254 42.7812 23.9248 42.7812 26.25C42.7812 27.3968 42.8712 28.5402 43.0426 29.4055C44.2335 28.9507 45.4801 29.0017 46.475 29.205C47.8524 29.4864 49.1923 30.1348 50.2952 30.9225C51.3801 31.6975 52.4516 32.7624 53.082 34.0403C53.7396 35.3734 54.0308 37.2816 52.7561 38.9812C51.6568 40.447 49.9197 40.9758 48.7233 41.2264C47.4926 41.4843 46.1172 41.5786 45.0089 41.6546L44.8485 41.6657C43.8401 41.7352 43.106 41.7953 42.5823 41.888C42.374 42.5024 42.034 42.9972 41.7193 43.3613C41.2208 43.9382 40.6073 44.3987 40.0572 44.7593C39.0964 45.3891 37.8793 45.9946 36.8152 46.524C36.6767 46.5929 36.5407 46.6605 36.4082 46.7268C35.1478 47.357 34.1254 47.8959 33.418 48.4225C33.1517 48.6207 33.0063 48.7609 32.9317 48.8427C32.8843 50.0265 32.5471 51.3105 32.1213 52.4349C31.6525 53.6731 30.9799 54.9721 30.1579 56.0133C29.747 56.5338 29.2377 57.0679 28.6254 57.488C28.0187 57.9044 27.1596 58.3097 26.1179 58.2931C23.7484 58.2555 22.5257 56.2739 21.9483 54.7342C20.8124 51.7051 21.2279 48.6731 21.4802 46.8317L21.4802 46.8316C21.508 46.6288 21.5338 46.4405 21.5553 46.2682C21.5702 46.1488 21.5833 46.0389 21.5945 45.9375H16.0996C17.2022 55.5346 22.2861 63.9205 29.6581 69.402C29.6858 68.2384 30.0295 66.7859 31.4433 65.9376C32.0203 65.5913 32.5869 65.4795 32.871 65.4303L32.8724 65.43C32.9064 65.192 32.9374 64.8329 32.9374 64.3125C32.9374 62.7564 33.0225 61.3575 33.234 60.1634C33.4379 59.0119 33.7999 57.8031 34.5288 56.8312C35.3579 55.7258 36.5855 55.043 38.0541 55.043C39.3306 55.043 40.5158 55.5608 41.5067 56.1553C42.892 56.9865 44.3876 57.5167 45.5096 57.7037C45.6003 57.7188 45.685 57.7311 45.7635 57.7409C45.7862 57.5645 45.8094 57.3715 45.8336 57.162C45.8658 56.8831 45.8994 56.575 45.935 56.2497C46.0263 55.414 46.1301 54.4647 46.2528 53.6054C46.408 52.5187 46.6524 51.0695 47.1598 50.0546C47.3445 49.6851 48.0682 48.3157 49.7228 48.1368C51.4245 47.9528 52.4412 49.1926 52.7561 49.6125C53.8015 51.0063 53.8964 52.7234 53.8964 53.792C53.8964 54.3868 53.8601 54.9826 53.83 55.4769C53.8213 55.6198 53.8131 55.7538 53.8059 55.8802C55.5843 55.0435 56.8405 54.0003 58.0412 53.0033L58.0413 53.0032L58.0414 53.0031C58.4662 52.6503 58.884 52.3034 59.3155 51.9734C59.7064 51.6744 60.2067 51.3193 60.7636 51.0648C61.3207 50.8102 62.2127 50.5281 63.2458 50.7806C64.3255 51.0446 65.0251 51.7573 65.4463 52.399C65.6766 52.7499 65.8611 53.1332 66.0133 53.525C68.4451 55.3311 69.3448 55.4531 69.6054 55.4531C69.7259 55.4531 69.8725 55.432 70.2979 55.2652C70.3617 55.2402 70.4393 55.2083 70.5288 55.1716C70.944 55.0013 71.6131 54.7268 72.332 54.5471C73.3593 54.2903 74.3543 54.5111 75.1464 55.0423C75.8456 55.5112 76.2868 56.1489 76.5634 56.6506C77.1145 57.65 77.4376 58.9027 77.6482 60.02C77.7474 60.5461 77.8309 61.096 77.9009 61.6531C81.1239 57.0859 83.2537 51.6921 83.9099 45.8524C83.4377 45.7566 82.9497 45.5694 82.4912 45.2405C81.742 44.7032 81.3536 43.9899 81.1481 43.4095C80.953 42.8587 80.88 42.3082 80.8412 41.8988C80.8082 41.5494 80.7896 41.1643 80.7736 40.8319L80.7649 40.6545C80.7291 39.9395 80.6779 39.2707 80.5356 38.6363C80.4651 38.8512 80.3929 39.0798 80.3189 39.3218C80.1846 39.7614 80.0406 40.2617 79.8938 40.7717L79.8937 40.7721L79.8935 40.7727C79.6155 41.7389 79.3273 42.7403 79.075 43.4323C78.9678 43.7264 78.8393 44.0474 78.6866 44.3488C78.5594 44.5999 78.3025 45.0709 77.8628 45.4737C77.3609 45.9335 76.2114 46.6082 74.8249 46.0267C73.8264 45.6079 73.3842 44.7633 73.2458 44.4864C72.7164 43.4276 71.7621 42.0717 70.6577 41.0972C69.4988 40.0747 68.6868 39.8976 68.2491 39.9773C68.2189 39.9957 68.1347 40.0598 67.9944 40.2446C67.8797 40.3956 67.7712 40.5691 67.6331 40.8014L67.6032 40.8523C67.5054 41.0197 67.2724 41.4187 67.0282 41.7117L67.0259 41.7145C66.9116 41.8517 66.471 42.3806 65.7007 42.6383C65.2372 42.7933 64.6716 42.8438 64.0821 42.6756C63.5188 42.515 63.1199 42.2081 62.8683 41.9526C62.4259 41.5034 62.2293 40.9994 62.1552 40.8004C62.057 40.5367 61.9855 40.2645 61.9303 40.0243C61.7216 39.1159 61.4994 37.5297 61.1792 35.1282C60.6738 31.3375 58.6649 29.6055 56.0231 27.8695C55.7203 27.6705 55.3906 27.461 55.0454 27.2416C53.9575 26.5502 52.7153 25.7606 51.6741 24.8944C50.2001 23.6682 48.8279 22.0725 48.1418 19.7855C47.1221 16.3866 47.7951 13.1093 48.8777 10.5454Z" fill="white"/>
</svg>
