<svg width="30" height="30" viewBox="0 0 30 30" fill="none" xmlns="http://www.w3.org/2000/svg">
<path d="M26.9283 9.06849C26.9413 9.33262 26.9462 9.60001 26.9462 9.86414C26.9462 18 20.7554 27.3783 9.43532 27.3783C5.95761 27.3783 2.72446 26.3592 0 24.6114C1.61148 24.8063 3.24557 24.6817 4.80887 24.2447C6.37216 23.8077 7.83401 23.0669 9.11087 22.0647C7.82677 22.0404 6.58235 21.6155 5.55159 20.8493C4.52084 20.0831 3.75528 19.0139 3.36196 17.7913C4.28488 17.9639 5.23474 17.9277 6.14185 17.6853C4.74882 17.4029 3.4963 16.6475 2.59654 15.5471C1.69678 14.4468 1.20513 13.0692 1.20489 11.6478V11.5712C2.05956 12.0466 3.01543 12.311 3.99293 12.3424C2.68838 11.4727 1.76491 10.1379 1.411 8.6105C1.0571 7.08309 1.29945 5.47819 2.08859 4.12338C3.63389 6.02522 5.56199 7.58072 7.74762 8.68884C9.93326 9.79697 12.3276 10.4329 14.775 10.5554C14.6691 10.095 14.6161 9.62406 14.6168 9.15164C14.6168 8.34366 14.776 7.54359 15.0853 6.79713C15.3945 6.05068 15.8478 5.37246 16.4192 4.8012C16.9906 4.22995 17.6689 3.77686 18.4155 3.46781C19.162 3.15875 19.9621 2.99979 20.7701 3.00001C21.6122 2.99863 22.4455 3.17029 23.2185 3.50433C23.9915 3.83836 24.6875 4.32766 25.2636 4.94186C26.6415 4.66908 27.9631 4.16406 29.1717 3.44838C28.712 4.87371 27.7502 6.08352 26.4652 6.85273C27.6852 6.7081 28.8767 6.38165 30 5.88425C29.1748 7.12083 28.1344 8.19933 26.9283 9.06849V9.06849Z" fill="#344135"/>
</svg>
