<svg width="99" height="107" viewBox="0 0 99 107" fill="none" xmlns="http://www.w3.org/2000/svg">
<path d="M80.3078 12.2095C80.3078 12.2095 64.7128 20.343 53.2794 40.686C53.2794 40.686 47.7659 37.8374 47.7659 27.0568C47.7659 16.2762 57.4321 1.01669 94.8603 0C94.8603 0 88.6223 36.6101 75.1036 42.7194C61.5849 48.8287 57.4322 44.7528 57.4322 44.7528C57.4322 44.7528 65.7554 25.4356 80.3078 12.2095Z" fill="#344135"/>
<path d="M16.2664 36.1338C16.2664 36.1338 34.5564 44.7345 39.9374 55.4967C39.9374 55.4967 44.2404 46.2458 39.9374 38.5061C35.6344 30.7572 20.5694 26.4615 1.20154 21.0849C5.50454 37.2146 6.5825 52.2726 17.3356 57.6584C28.6011 63.2914 35.6255 58.73 35.6255 58.73C35.6255 58.73 24.8724 43.6628 16.2664 36.1338Z" fill="#344135"/>
<path d="M79.8396 78.7799C74.5028 78.7799 69.652 80.9141 66.0205 84.4038C63.3786 76.8382 57.3438 70.9853 49.8246 68.7687C49.9483 65.9293 50.6817 56.5318 54.8168 47.9586C55.4707 46.603 54.9405 44.9543 53.6328 44.2765C52.3251 43.5987 50.7347 44.1483 50.072 45.5039C45.7337 54.4892 44.7706 63.9967 44.5497 67.8528C44.0903 67.8253 43.6308 67.7978 43.1625 67.7978C33.885 67.7978 25.818 73.1927 21.727 81.1156C20.3752 80.8041 18.9791 80.621 17.5389 80.621C9.63092 80.621 2.86277 85.6312 0 92.748V107H98.748V92.1343C95.7792 84.3122 88.4368 78.7799 79.8396 78.7799Z" fill="#344135"/>
</svg>
