<svg width="97" height="107" viewBox="0 0 97 107" fill="none" xmlns="http://www.w3.org/2000/svg">
<path d="M55.0133 40.9538L75.4388 19.2218V16.2081H72.6606L56.2472 33.6713H51.3658V28.4364L67.7327 11.0228L67.7171 8.21553L65.0786 8.199L48.7118 25.6126H43.7916V20.4191L60.205 2.95595V0H57.3725L36.9469 21.7319L38.1032 31.5493C38.1032 31.5493 34.2618 37.6841 20.0368 50.7711C19.5867 51.1839 19.1521 51.5885 18.7175 51.9849H26.5867V60.3573C26.9592 59.8949 27.3394 59.4325 27.7275 58.9536C40.0278 43.8189 45.7938 39.7318 45.7938 39.7318L55.0133 40.9538ZM39.0577 38.9061C38.3127 38.1134 38.3127 36.8336 39.0577 36.041C39.8027 35.2483 41.0056 35.2483 41.7506 36.041C42.4956 36.8336 42.4956 38.1134 41.7506 38.9061C41.0056 39.6987 39.8027 39.6987 39.0577 38.9061Z" fill="#344135"/>
<path d="M11.7254 78.7617C14.2475 75.6076 18.4459 70.381 24.2197 63.2636V54.6601H15.7996C9.20323 60.7123 4.35291 65.1297 1.41169 67.7884C-0.373217 69.4067 -0.481854 72.3048 1.17889 74.0718L3.49926 76.5406L5.81963 79.0094C7.48037 80.7763 10.2043 80.6607 11.7254 78.7617ZM4.84957 74.9057C3.25868 73.2131 3.25868 70.4636 4.84957 68.7709C6.44047 67.0783 9.02475 67.0783 10.6156 68.7709C12.2065 70.4636 12.2065 73.2131 10.6156 74.9057C9.02475 76.5984 6.44047 76.5984 4.84957 74.9057Z" fill="#344135"/>
<path d="M84.8133 33.5309C82.2912 36.685 78.0928 41.9116 72.319 49.0289V57.6325H80.7391C87.3355 51.5803 92.1858 47.1629 95.127 44.5042C96.9119 42.8859 97.0205 39.9877 95.3598 38.2208L93.0394 35.752L90.719 33.2832C89.0583 31.5162 86.3344 31.6319 84.8133 33.5309ZM91.6891 37.3868C93.28 39.0795 93.28 41.829 91.6891 43.5216C90.0982 45.2143 87.514 45.2143 85.9231 43.5216C84.3322 41.829 84.3322 39.0795 85.9231 37.3868C87.514 35.6942 90.0982 35.6942 91.6891 37.3868Z" fill="#344135"/>
<path d="M57.6829 66.0875L64.5276 73.37C67.2903 70.3728 71.1628 66.4343 76.5098 61.5215C76.9599 61.1087 77.3945 60.7041 77.8291 60.3077H69.9599V51.9353C69.5874 52.3977 69.2072 52.8601 68.8192 53.339C64.2017 59.0279 60.4999 63.1481 57.6829 66.0875Z" fill="#344135"/>
<path d="M63.7361 87.2497L57.6519 80.7764L62.8437 75.2526L55.9213 67.8875L50.7296 73.4113L44.6454 66.938C44.6454 66.938 26.0901 83.9222 26.0901 91.3698C26.0901 95.2753 26.0901 99.3872 26.0901 102.409C26.0901 104.944 28.0225 107 30.405 107C33.2453 107 37.1022 107 40.7807 107C47.7729 106.992 63.7361 87.2497 63.7361 87.2497ZM54.8815 76.3507C54.1365 75.5581 54.1365 74.2783 54.8815 73.4856C55.6265 72.6929 56.8293 72.6929 57.5743 73.4856C58.3193 74.2783 58.3193 75.5581 57.5743 76.3507C56.8293 77.1351 55.6265 77.1351 54.8815 76.3507Z" fill="#344135"/>
</svg>
