<svg width="60" height="67" viewBox="0 0 60 67" fill="none" xmlns="http://www.w3.org/2000/svg">
<path opacity="0.8" d="M34.2 66.6001C24.2028 66.6001 9 41.8501 9 27.4429C9 13.2877 20.2752 1.80005 34.2 1.80005C48.1248 1.80005 59.4 13.2877 59.4 27.4429C59.4 41.8501 44.1972 66.6001 34.2 66.6001Z" fill="#344135"/>
<path fill-rule="evenodd" clip-rule="evenodd" d="M25.2 35.9999C28.0644 35.9999 30.8114 34.8621 32.8368 32.8367C34.8622 30.8113 36 28.0642 36 25.1999C36 22.3356 34.8622 19.5885 32.8368 17.5631C30.8114 15.5378 28.0644 14.3999 25.2 14.3999C22.3357 14.3999 19.5887 15.5378 17.5633 17.5631C15.5379 19.5885 14.4 22.3356 14.4 25.1999C14.4 28.0642 15.5379 30.8113 17.5633 32.8367C19.5887 34.8621 22.3357 35.9999 25.2 35.9999ZM25.2 17.9999C27.1096 17.9999 28.9409 18.7585 30.2912 20.1087C31.6415 21.459 32.4 23.2903 32.4 25.1999C32.4 27.1095 31.6415 28.9408 30.2912 30.2911C28.9409 31.6413 27.1096 32.3999 25.2 32.3999C23.2905 32.3999 21.4591 31.6413 20.1089 30.2911C18.7586 28.9408 18 27.1095 18 25.1999C18 23.2903 18.7586 21.459 20.1089 20.1087C21.4591 18.7585 23.2905 17.9999 25.2 17.9999Z" fill="white"/>
<path fill-rule="evenodd" clip-rule="evenodd" d="M0 25.6428C0 40.05 15.2028 64.8 25.2 64.8C35.1972 64.8 50.4 40.05 50.4 25.6428C50.4 11.4876 39.1248 0 25.2 0C11.2752 0 0 11.4876 0 25.6428ZM46.8 25.6428C46.8 38.3148 32.7456 61.2 25.2 61.2C17.6544 61.2 3.6 38.3148 3.6 25.6428C3.6 13.464 13.2768 3.6 25.2 3.6C37.1232 3.6 46.8 13.464 46.8 25.6428Z" fill="white"/>
</svg>
