<svg width="100" height="84" viewBox="0 0 100 84" fill="none" xmlns="http://www.w3.org/2000/svg">
<path d="M77.6242 74.9345C77.021 71.0543 75.6228 67.6891 73.2193 64.7871C71.1664 62.3065 68.7535 60.3921 65.4708 59.7556C64.0867 59.4841 62.7025 58.9833 61.6036 58.0893C59.9483 56.746 59.5696 57.5604 59.13 59.1565C57.9797 63.3362 56.3944 67.338 53.5981 70.9935C52.5506 69.4676 52.214 67.8575 51.9427 66.313C51.5827 64.2863 54.1733 64.4408 54.7391 63.0085C49.3989 59.2454 51.5125 59.3343 46.2425 62.9758C49.4737 66.2287 49.4737 66.2287 47.4957 71.0356C44.0447 66.9355 42.7447 62.0022 41.0707 57.0737C38.7513 58.6837 36.17 59.3343 33.7244 60.3172C27.8885 62.6622 25.0688 67.5393 23.6379 73.3899C23.5303 73.8252 23.4929 74.2745 23.376 75C11.9521 69.0698 2.9178 61.2955 1.23438 47.942C-0.252639 36.1611 5.47567 27.2588 14.4539 20.3316C25.0267 12.1782 37.325 8.97672 50.4651 9.00013C64.1054 9.02821 76.7591 12.4497 87.6032 21.1741C91.3207 24.165 94.4163 27.7081 96.6375 31.958C100.757 39.8447 101.155 47.9233 97.4792 56.0533C93.4437 64.9697 86.2611 70.6237 77.6242 74.9345ZM50.4183 28.1996C44.7181 28.2277 40.0419 32.2295 39.6912 37.7104C39.3358 43.2895 41.1128 48.293 44.8817 52.4259C48.2953 56.1703 52.7611 56.1141 56.1653 52.351C59.5649 48.5972 61.2623 44.0337 61.3465 39.0116C61.4494 32.7584 56.6703 28.1668 50.4183 28.1996Z" fill="white"/>
</svg>
