<svg width="16" height="25" viewBox="0 0 16 25" fill="none" xmlns="http://www.w3.org/2000/svg">
<path fill-rule="evenodd" clip-rule="evenodd" d="M15.6807 8.10631C15.6807 3.69626 12.2899 0 7.84663 0C3.40334 0 0 3.69877 0 8.11007C0 9.56524 0.203222 10.6629 0.892547 11.9173H0.879375L7.58759 24.8514C7.83973 25.197 8.10442 24.8314 8.10442 24.8314C7.87799 25.1707 14.8126 11.9173 14.8126 11.9173H14.807C15.4894 10.6629 15.6807 9.56273 15.6807 8.10631ZM4.23442 7.85792C4.23442 5.77741 5.85205 4.09204 7.84663 4.09204C9.84059 4.09204 11.4595 5.77741 11.4595 7.85792C11.4595 9.93844 9.84059 11.6244 7.84663 11.6244C5.85205 11.6244 4.23442 9.93907 4.23442 7.85792V7.85792Z" fill="#344135"/>
</svg>
