<svg width="100" height="107" viewBox="0 0 100 107" fill="none" xmlns="http://www.w3.org/2000/svg">
<path d="M42.2878 107H63.8463L70.4797 61.8675H42.2878H21.5585L28.1919 107H42.2878Z" fill="#344135"/>
<path d="M86.6486 14.8963C83.3319 15.9828 87.4778 11.3024 86.6486 10.4666C85.8194 9.63082 83.3319 11.3024 81.6736 14.6455C80.0152 17.9887 79.1861 17.9887 77.5277 18.9916C75.8694 19.9946 77.5277 12.974 77.5277 12.1382C77.5277 11.3024 76.6985 11.3024 74.211 15.4813C71.7235 19.6603 71.7235 22.1676 69.236 23.8392C66.7485 25.5108 66.7485 18.8245 65.9193 18.8245C65.0901 18.8245 64.2609 20.496 64.2609 23.8392C64.2609 27.1823 63.4318 30.5255 61.7734 31.3613C60.1151 32.1971 60.1151 29.6897 58.4567 28.8539C56.7984 28.0181 55.9692 28.8539 56.7984 30.1912C57.6275 31.5284 57.6275 35.5402 56.7984 36.376C55.9692 37.2118 55.9692 34.7044 55.14 34.7044C54.3109 34.7044 53.4817 35.5402 53.4817 37.2118C53.4817 38.8834 51.8233 41.3907 50.165 40.5549C48.5066 39.7191 49.3358 38.0476 50.165 36.376C51.6907 33.2919 54.3109 33.0328 52.6525 32.1971C50.9942 31.3613 49.3358 32.1971 48.631 32.5314C47.9262 32.8657 46.8483 33.0328 47.6775 29.5225C48.5066 26.0122 49.3358 21.3318 47.6775 21.3318C46.0191 21.3318 46.0191 23.0034 43.5316 22.4183C41.0441 21.8333 43.5316 15.4813 43.5316 11.3024C43.5316 7.12346 41.8733 9.63082 41.0441 11.3024C40.2149 12.974 39.3857 14.6455 38.5566 14.6455C37.7274 14.6455 37.7274 16.3171 36.8982 11.3024C36.069 6.28767 35.2399 5.45188 34.4107 3.78031C33.5815 2.10874 32.7523 4.6161 32.7523 7.12346C32.7523 9.63082 30.2648 6.28767 27.7773 4.6161C25.2898 2.94452 21.9731 -1.23442 20.6547 0.353578C19.2617 2.04187 25.7044 7.54135 31.5086 15.8992C37.3128 24.2571 38.9711 31.7792 40.6295 36.7939C42.2878 41.8086 40.6295 42.6444 38.9711 41.8086C37.3128 40.9728 38.142 34.2865 36.4836 31.7792C34.8253 29.2718 32.3378 35.1223 30.6794 35.348C29.0211 35.5736 28.1919 27.6002 24.8752 24.2571C21.5585 20.9139 22.3877 24.2571 23.2169 26.7644C24.046 29.2718 21.5585 32.615 20.7293 29.2718C19.9002 25.9287 16.5835 22.5855 14.0959 20.9139C11.6084 19.2424 13.2668 23.4213 13.2668 25.0929C13.2668 26.7644 11.6084 25.0929 7.35476 24.2571C3.1011 23.4213 0 24.2571 0 24.2571C20.2152 31.052 30.5716 43.9148 33.7474 48.4949C26.9316 48.4949 18.5237 48.4949 18.5237 48.4949L15.7543 58.5243H42.2878H78.7715L76.0103 48.4949H60.339C61.4252 43.2629 64.4351 39.1759 67.5776 34.7044C71.682 28.879 84.3269 20.8722 88.307 18.8245C91.7812 17.0442 99.2023 13.0325 99.9154 12.1382C101.076 10.6839 89.9653 13.8097 86.6486 14.8963Z" fill="#344135"/>
</svg>
