<svg width="64" height="69" viewBox="0 0 64 69" fill="none" xmlns="http://www.w3.org/2000/svg">
<path opacity="0.8" d="M4.94291 31.8182C4.57315 31.7211 4.2439 31.5089 4.00286 31.2121C3.76182 30.9154 3.62151 30.5497 3.60226 30.1679C3.58301 29.786 3.68582 29.408 3.89579 29.0886C4.10576 28.7691 4.41199 28.5248 4.77011 28.391L61.3441 7.31301C61.6573 7.19643 61.9968 7.16936 62.3246 7.23482C62.6523 7.30028 62.9553 7.45569 63.1997 7.68365C63.4441 7.91161 63.6202 8.20311 63.7083 8.5255C63.7964 8.84789 63.793 9.18845 63.6985 9.50901L46.6201 67.415C46.5119 67.7787 46.2916 68.0989 45.9906 68.3299C45.6896 68.5609 45.3233 68.6909 44.944 68.7012C44.5647 68.7116 44.1919 68.6019 43.8787 68.3877C43.5655 68.1735 43.328 67.8658 43.2001 67.5086L33.1021 39.1838L4.94291 31.8182Z" fill="#7E9380"/>
<path fill-rule="evenodd" clip-rule="evenodd" d="M1.34293 24.6183L29.5057 31.9839L39.5965 60.3087C39.7244 60.6659 39.9619 60.9736 40.2751 61.1878C40.5883 61.4019 40.9612 61.5117 41.3405 61.5013C41.7197 61.4909 42.086 61.3609 42.3871 61.13C42.6881 60.899 42.9084 60.5787 43.0165 60.2151L60.0985 2.30906C60.1931 1.98849 60.1965 1.64794 60.1084 1.32555C60.0203 1.00316 59.8442 0.711658 59.5998 0.483699C59.3554 0.255741 59.0523 0.100327 58.7246 0.034866C58.3968 -0.0305953 58.0574 -0.00351903 57.7441 0.113062L1.17013 21.1911C0.812012 21.3248 0.505783 21.5692 0.295812 21.8886C0.0858414 22.2081 -0.0169662 22.5861 0.00228447 22.9679C0.0215351 23.3497 0.161844 23.7155 0.402883 24.0122C0.643923 24.3089 0.973173 24.5212 1.34293 24.6183ZM7.76173 22.5771L55.6273 4.74266L41.1301 53.8899L32.5765 29.8779C32.4778 29.6024 32.3135 29.3552 32.0977 29.1576C31.8819 28.96 31.6212 28.818 31.3381 28.7439L7.76173 22.5771Z" fill="#344135"/>
<path d="M55.7965 2.43896L58.3417 4.98416L30.5965 32.7294L28.0513 30.1842L55.7965 2.43896Z" fill="#344135"/>
</svg>
