<svg width="66" height="71" viewBox="0 0 66 71" fill="none" xmlns="http://www.w3.org/2000/svg">
<path opacity="0.8" d="M39.6076 41.2076L41.7028 39.1124C43.7281 37.0877 46.4747 35.9503 49.3384 35.9503C52.2022 35.9503 54.9487 37.0877 56.974 39.1124L62.068 44.2064C64.0927 46.2317 65.2301 48.9782 65.2301 51.842C65.2301 54.7058 64.0927 57.4523 62.068 59.4776L51.9664 69.5792C51.475 70.0706 50.8518 70.4093 50.1721 70.5543C49.4924 70.6993 48.7853 70.6445 48.136 70.3964C24.772 61.4756 8.77365 45.3692 0.227248 22.4732C-0.0141816 21.8263 -0.0644917 21.1236 0.0823161 20.449C0.229124 19.7743 0.566856 19.1561 1.05525 18.668L11.1568 8.56639C13.1821 6.5417 15.9287 5.4043 18.7924 5.4043C21.6562 5.4043 24.4027 6.5417 26.428 8.56639L31.5184 13.6568C32.5215 14.6597 33.3172 15.8504 33.8601 17.1608C34.4029 18.4712 34.6823 19.8758 34.6823 21.2942C34.6823 22.7126 34.4029 24.1172 33.8601 25.4276C33.3172 26.738 32.5215 27.9287 31.5184 28.9316L29.4305 31.0196C32.6008 34.6304 36.0002 38.0334 39.6076 41.2076Z" fill="#7E9380"/>
<path fill-rule="evenodd" clip-rule="evenodd" d="M41.1733 33.1865L37.8973 36.4661C33.3248 32.5641 29.0683 28.3064 25.1677 23.7329L28.4437 20.4569C30.1309 18.7691 31.0788 16.4804 31.0788 14.0939C31.0788 11.7074 30.1309 9.41863 28.4437 7.73088L23.3569 2.63688C22.5211 1.8009 21.5289 1.13775 20.4368 0.685311C19.3447 0.232871 18.1742 0 16.9921 0C15.81 0 14.6395 0.232871 13.5474 0.685311C12.4553 1.13775 11.463 1.8009 10.6273 2.63688L0.525679 12.7385C0.281749 12.9831 0.113349 13.2927 0.0405785 13.6304C-0.0321923 13.968 -0.00626051 14.3195 0.115279 14.6429C8.48168 37.0565 24.0949 52.7777 46.9801 61.5149C47.3044 61.6379 47.6573 61.6647 47.9965 61.5918C48.3356 61.519 48.6465 61.3498 48.8917 61.1045L58.9933 51.0065C59.8293 50.1707 60.4924 49.1785 60.9448 48.0864C61.3973 46.9943 61.6302 45.8238 61.6302 44.6417C61.6302 43.4596 61.3973 42.2891 60.9448 41.197C60.4924 40.1049 59.8293 39.1126 58.9933 38.2769L53.9029 33.1865C53.0671 32.3505 52.0749 31.6873 50.9828 31.2349C49.8907 30.7825 48.7202 30.5496 47.5381 30.5496C46.356 30.5496 45.1855 30.7825 44.0934 31.2349C43.0013 31.6873 42.009 32.3505 41.1733 33.1865ZM56.4481 40.8221C56.9499 41.3236 57.3479 41.919 57.6195 42.5744C57.8911 43.2298 58.0309 43.9322 58.0309 44.6417C58.0309 45.3511 57.8911 46.0536 57.6195 46.709C57.3479 47.3643 56.9499 47.9598 56.4481 48.4613L47.1781 57.7313C26.2225 49.4297 11.8585 34.9793 3.89528 14.4593L13.1725 5.18568C13.674 4.68388 14.2694 4.2858 14.9248 4.01421C15.5802 3.74262 16.2826 3.60283 16.9921 3.60283C17.7015 3.60283 18.404 3.74262 19.0594 4.01421C19.7148 4.2858 20.3102 4.68388 20.8117 5.18568L25.9021 10.2761C26.9144 11.2887 27.4831 12.662 27.4831 14.0939C27.4831 15.5258 26.9144 16.899 25.9021 17.9117L21.4597 22.3541C21.142 22.6709 20.954 23.095 20.9327 23.5432C20.9114 23.9913 21.0583 24.4313 21.3445 24.7769C26.0181 30.4207 31.2091 35.6153 36.8497 40.2929C37.1948 40.5796 37.6345 40.727 38.0827 40.7064C38.5309 40.6857 38.9552 40.4985 39.2725 40.1813L43.7221 35.7317C44.7346 34.7204 46.1071 34.1524 47.5381 34.1524C48.9691 34.1524 50.3416 34.7204 51.3541 35.7317L56.4481 40.8221Z" fill="#344135"/>
</svg>
